<svg width="30" height="30" viewBox="0 0 30 30" fill="none" xmlns="http://www.w3.org/2000/svg">
<path d="M24.9875 4.95584C23.6887 3.6439 22.1417 2.6037 20.4366 1.89591C18.7316 1.18812 16.9027 0.826905 15.0567 0.833336C7.32166 0.833336 1.01749 7.1375 1.01749 14.8725C1.01749 17.3517 1.66916 19.76 2.88749 21.885L0.90416 29.1667L8.34166 27.2117C10.3958 28.3308 12.705 28.9258 15.0567 28.9258C22.7917 28.9258 29.0958 22.6217 29.0958 14.8867C29.0958 11.1325 27.6367 7.605 24.9875 4.95584ZM15.0567 26.5458C12.96 26.5458 10.9058 25.9792 9.10666 24.9167L8.68166 24.6617L4.26166 25.8233L5.43749 21.5167L5.15416 21.0775C3.9893 19.2174 3.37077 17.0673 3.36916 14.8725C3.36916 8.44084 8.61083 3.19917 15.0425 3.19917C18.1592 3.19917 21.0917 4.4175 23.2875 6.6275C24.3748 7.70978 25.2364 8.99711 25.8225 10.4149C26.4085 11.8326 26.7074 13.3526 26.7017 14.8867C26.73 21.3183 21.4883 26.5458 15.0567 26.5458ZM21.46 17.8192C21.1058 17.6492 19.3775 16.7992 19.0658 16.6717C18.74 16.5583 18.5133 16.5017 18.2725 16.8417C18.0317 17.1958 17.3658 17.9892 17.1675 18.2158C16.9692 18.4567 16.7567 18.485 16.4025 18.3008C16.0483 18.1308 14.915 17.7483 13.5833 16.5583C12.535 15.6233 11.8408 14.4758 11.6283 14.1217C11.43 13.7675 11.6 13.5833 11.7842 13.3992C11.94 13.2433 12.1383 12.9883 12.3083 12.79C12.4783 12.5917 12.5492 12.4358 12.6625 12.2092C12.7758 11.9683 12.7192 11.77 12.6342 11.6C12.5492 11.43 11.8408 9.70167 11.5575 8.99334C11.2742 8.31334 10.9767 8.39834 10.7642 8.38417H10.0842C9.84333 8.38417 9.47499 8.46917 9.14916 8.82334C8.83749 9.1775 7.93083 10.0275 7.93083 11.7558C7.93083 13.4842 9.19166 15.1558 9.36166 15.3825C9.53166 15.6233 11.8408 19.165 15.3542 20.6808C16.19 21.0492 16.8417 21.2617 17.3517 21.4175C18.1875 21.6867 18.9525 21.6442 19.5617 21.5592C20.2417 21.46 21.6442 20.7092 21.9275 19.8875C22.225 19.0658 22.225 18.3717 22.1258 18.2158C22.0267 18.06 21.8142 17.9892 21.46 17.8192Z" fill="#149631"/>
</svg>
